HIERARCHY
ROOT hip
{
  OFFSET 0 90.174 2.4664
  CHANNELS 6 Xposition Yposition Zposition Zrotation Xrotation Yrotation
  JOINT abdomen
  {
    OFFSET 0 -1.186 -1.5018
    CHANNELS 6 Xposition Yposition Zposition Zrotation Xrotation Yrotation
    JOINT abdomen2
    {
      OFFSET 0 9.964 0.2134
      CHANNELS 6 Xposition Yposition Zposition Zrotation Xrotation Yrotation
      JOINT chest
      {
        OFFSET 0 13.134 -3.2573
        CHANNELS 6 Xposition Yposition Zposition Zrotation Xrotation Yrotation
        JOINT neck
        {
          OFFSET 0 20.686 -1.6905
          CHANNELS 6 Xposition Yposition Zposition Zrotation Xrotation Yrotation
          JOINT head
          {
            OFFSET 0 7.238 -0.1237
            CHANNELS 6 Xposition Yposition Zposition Zrotation Xrotation Yrotation
            End Site
            {
              OFFSET 0 0 0
            }
          }
        }
        JOINT lCollar
        {
          OFFSET 1.7069 20.075 5.0056
          CHANNELS 6 Xposition Yposition Zposition Zrotation Xrotation Yrotation
          JOINT lShldr
          {
            OFFSET 13.6458 -0.047 -4.849
            CHANNELS 6 Xposition Yposition Zposition Zrotation Xrotation Yrotation
            JOINT lForeArm
            {
              OFFSET 28.3255 -0.9759 2.2888
              CHANNELS 6 Xposition Yposition Zposition Zrotation Xrotation Yrotation
              JOINT lHand
              {
                OFFSET 22.1583 -0.53 10.8316
                CHANNELS 6 Xposition Yposition Zposition Zrotation Xrotation Yrotation
                JOINT lThumb1
                {
                  OFFSET 0.786 0.112 2.5817
                  CHANNELS 6 Xposition Yposition Zposition Zrotation Xrotation Yrotation
                  JOINT lThumb2
                  {
                    OFFSET 0.3601 -0.878 4.2331
                    CHANNELS 6 Xposition Yposition Zposition Zrotation Xrotation Yrotation
                    JOINT lThumb2_End
                    {
                      OFFSET 1.8127 -1.216 2.2227
                      CHANNELS 6 Xposition Yposition Zposition Zrotation Xrotation Yrotation
                      End Site
                      {
                        OFFSET 0.0181 -0.0122 0.0222
                      }
                    }
                  }
                }
                JOINT lCarpal1
                {
                  OFFSET 0.9571 1.114 1.7695
                  CHANNELS 6 Xposition Yposition Zposition Zrotation Xrotation Yrotation
                  JOINT lIndex1
                  {
                    OFFSET 4.1246 0.487 4.1451
                    CHANNELS 6 Xposition Yposition Zposition Zrotation Xrotation Yrotation
                    JOINT lIndex2
                    {
                      OFFSET 3.4052 -1.454 2.7682
                      CHANNELS 6 Xposition Yposition Zposition Zrotation Xrotation Yrotation
                      JOINT lIndex2_End
                      {
                        OFFSET 1.4531 -1.795 1.2713
                        CHANNELS 6 Xposition Yposition Zposition Zrotation Xrotation Yrotation
                        End Site
                        {
                          OFFSET 0.0145 -0.0179 0.0127
                        }
                      }
                    }
                  }
                  JOINT lMid1
                  {
                    OFFSET 5.6954 0.21 2.1184
                    CHANNELS 6 Xposition Yposition Zposition Zrotation Xrotation Yrotation
                    JOINT lMid2
                    {
                      OFFSET 3.9766 -1.54 2.3863
                      CHANNELS 6 Xposition Yposition Zposition Zrotation Xrotation Yrotation
                      JOINT lMid2_End
                      {
                        OFFSET 1.4042 -1.926 1.125
                        CHANNELS 6 Xposition Yposition Zposition Zrotation Xrotation Yrotation
                        End Site
                        {
                          OFFSET 0.014 -0.0193 0.0113
                        }
                      }
                    }
                  }
                }
                JOINT lCarpal2
                {
                  OFFSET 2.0956 0.66 -0.3894
                  CHANNELS 6 Xposition Yposition Zposition Zrotation Xrotation Yrotation
                  JOINT lRing1
                  {
                    OFFSET 5.0395 -0.09 2.4971
                    CHANNELS 6 Xposition Yposition Zposition Zrotation Xrotation Yrotation
                    JOINT lRing2
                    {
                      OFFSET 3.7921 -1.552 1.4806
                      CHANNELS 6 Xposition Yposition Zposition Zrotation Xrotation Yrotation
                      JOINT lRing2_End
                      {
                        OFFSET 1.4655 -1.808 0.9609
                        CHANNELS 6 Xposition Yposition Zposition Zrotation Xrotation Yrotation
                        End Site
                        {
                          OFFSET 0.0147 -0.0181 0.0096
                        }
                      }
                    }
                  }
                  JOINT lPinky1
                  {
                    OFFSET 4.9141 -1.269 0.3591
                    CHANNELS 6 Xposition Yposition Zposition Zrotation Xrotation Yrotation
                    JOINT lPinky2
                    {
                      OFFSET 3.1477 -1.685 0.8462
                      CHANNELS 6 Xposition Yposition Zposition Zrotation Xrotation Yrotation
                      JOINT lPinky2_End
                      {
                        OFFSET 0.8055 -1.585 0.7955
                        CHANNELS 6 Xposition Yposition Zposition Zrotation Xrotation Yrotation
                        End Site
                        {
                          OFFSET 0.0081 -0.0158 0.008
                        }
                      }
                    }
                  }
                }
              }
            }
          }
        }
        JOINT rCollar
        {
          OFFSET -1.7069 20.075 5.0056
          CHANNELS 6 Xposition Yposition Zposition Zrotation Xrotation Yrotation
          JOINT rShldr
          {
            OFFSET -13.6458 -0.047 -4.849
            CHANNELS 6 Xposition Yposition Zposition Zrotation Xrotation Yrotation
            JOINT rForeArm
            {
              OFFSET -28.3255 -0.9759 2.2888
              CHANNELS 6 Xposition Yposition Zposition Zrotation Xrotation Yrotation
              JOINT rHand
              {
                OFFSET -22.1583 -0.53 10.8316
                CHANNELS 6 Xposition Yposition Zposition Zrotation Xrotation Yrotation
                JOINT rThumb1
                {
                  OFFSET -0.786 0.112 2.5817
                  CHANNELS 6 Xposition Yposition Zposition Zrotation Xrotation Yrotation
                  JOINT rThumb2
                  {
                    OFFSET -0.3601 -0.878 4.2331
                    CHANNELS 6 Xposition Yposition Zposition Zrotation Xrotation Yrotation
                    JOINT rThumb2_End
                    {
                      OFFSET -1.8127 -1.216 2.2227
                      CHANNELS 6 Xposition Yposition Zposition Zrotation Xrotation Yrotation
                      End Site
                      {
                        OFFSET -0.0181 -0.0122 0.0222
                      }
                    }
                  }
                }
                JOINT rCarpal1
                {
                  OFFSET -0.9571 1.114 1.7695
                  CHANNELS 6 Xposition Yposition Zposition Zrotation Xrotation Yrotation
                  JOINT rIndex1
                  {
                    OFFSET -4.1246 0.487 4.1451
                    CHANNELS 6 Xposition Yposition Zposition Zrotation Xrotation Yrotation
                    JOINT rIndex2
                    {
                      OFFSET -3.4052 -1.454 2.7682
                      CHANNELS 6 Xposition Yposition Zposition Zrotation Xrotation Yrotation
                      JOINT rIndex2_End
                      {
                        OFFSET -1.4531 -1.795 1.2713
                        CHANNELS 6 Xposition Yposition Zposition Zrotation Xrotation Yrotation
                        End Site
                        {
                          OFFSET -0.0145 -0.018 0.0127
                        }
                      }
                    }
                  }
                  JOINT rMid1
                  {
                    OFFSET -5.6954 0.21 2.1184
                    CHANNELS 6 Xposition Yposition Zposition Zrotation Xrotation Yrotation
                    JOINT rMid2
                    {
                      OFFSET -3.9766 -1.54 2.3863
                      CHANNELS 6 Xposition Yposition Zposition Zrotation Xrotation Yrotation
                      JOINT rMid2_End
                      {
                        OFFSET -1.4042 -1.926 1.125
                        CHANNELS 6 Xposition Yposition Zposition Zrotation Xrotation Yrotation
                        End Site
                        {
                          OFFSET -0.014 -0.0193 0.0113
                        }
                      }
                    }
                  }
                }
                JOINT rCarpal2
                {
                  OFFSET -2.0956 0.66 -0.3894
                  CHANNELS 6 Xposition Yposition Zposition Zrotation Xrotation Yrotation
                  JOINT rRing1
                  {
                    OFFSET -5.0395 -0.09 2.4971
                    CHANNELS 6 Xposition Yposition Zposition Zrotation Xrotation Yrotation
                    JOINT rRing2
                    {
                      OFFSET -3.7921 -1.552 1.4806
                      CHANNELS 6 Xposition Yposition Zposition Zrotation Xrotation Yrotation
                      JOINT rRing2_End
                      {
                        OFFSET -1.4655 -1.808 0.9609
                        CHANNELS 6 Xposition Yposition Zposition Zrotation Xrotation Yrotation
                        End Site
                        {
                          OFFSET -0.0147 -0.0181 0.0096
                        }
                      }
                    }
                  }
                  JOINT rPinky1
                  {
                    OFFSET -4.9141 -1.269 0.3592
                    CHANNELS 6 Xposition Yposition Zposition Zrotation Xrotation Yrotation
                    JOINT rPinky2
                    {
                      OFFSET -3.1477 -1.685 0.8462
                      CHANNELS 6 Xposition Yposition Zposition Zrotation Xrotation Yrotation
                      JOINT rPinky2_End
                      {
                        OFFSET -0.8055 -1.585 0.7955
                        CHANNELS 6 Xposition Yposition Zposition Zrotation Xrotation Yrotation
                        End Site
                        {
                          OFFSET -0.0081 -0.0158 0.008
                        }
                      }
                    }
                  }
                }
              }
            }
          }
        }
      }
    }
  }
  JOINT lThigh
  {
    OFFSET 8.367 -8.2066 0.5982
    CHANNELS 6 Xposition Yposition Zposition Zrotation Xrotation Yrotation
    JOINT lShin
    {
      OFFSET 2.1923 -43.463 -0.4932
      CHANNELS 6 Xposition Yposition Zposition Zrotation Xrotation Yrotation
      JOINT lFoot
      {
        OFFSET 0.7333 -45.8593 -2.6451
        CHANNELS 6 Xposition Yposition Zposition Zrotation Xrotation Yrotation
        End Site
        {
          OFFSET 2.6618 -4.2699 12.3931
        }
      }
    }
  }
  JOINT rThigh
  {
    OFFSET -8.367 -8.2066 0.5982
    CHANNELS 6 Xposition Yposition Zposition Zrotation Xrotation Yrotation
    JOINT rShin
    {
      OFFSET -2.1923 -43.463 -0.4931
      CHANNELS 6 Xposition Yposition Zposition Zrotation Xrotation Yrotation
      JOINT rFoot
      {
        OFFSET -0.7333 -45.8593 -2.6451
        CHANNELS 6 Xposition Yposition Zposition Zrotation Xrotation Yrotation
        End Site
        {
          OFFSET -2.6618 -4.2699 12.3931
        }
      }
    }
  }
}
MOTION
Frames:	4
Frame Time:	0.0333333
0 90.174 2.4664 0 0 -0 0 -1.186 -1.5018 0 0 -0 0 9.964 0.2134 0 0 -0 0 13.134 -3.2573 0 0 -0 0 20.686 -1.6905 0 0 -0 0 7.238 -0.1237 0 0 -0 1.7069 20.075 5.0056 0 0 -0 13.6458 -0.047 -4.849 1.66051 0.0835086 5.75766 28.3255 -0.9759 2.2888 -0.0175111 0.895433 15.7816 22.1583 -0.53 10.8316 7.95139e-016 -1.98785e-016 -0 0.786 0.112 2.5817 5.46658e-016 -3.97569e-016 -0 0.3601 -0.878 4.2331 5.96354e-016 0 -0 1.8127 -1.216 2.2227 3.97569e-016 1.98785e-016 9.54166e-015 0.9571 1.114 1.7695 1.49089e-016 -3.97569e-016 -0 4.1246 0.487 4.1451 6.4605e-016 0 3.18055e-015 3.4052 -1.454 2.7682 5.96354e-016 0 3.18055e-015 1.4531 -1.795 1.2713 8.94531e-016 -1.98785e-016 6.36111e-015 5.6954 0.21 2.1184 6.4605e-016 0 3.18055e-015 3.9766 -1.54 2.3863 5.96354e-016 0 3.18055e-015 1.4042 -1.926 1.125 8.94531e-016 -1.98785e-016 6.36111e-015 2.0956 0.66 -0.3894 1.49089e-016 -3.97569e-016 -0 5.0395 -0.09 2.4971 6.4605e-016 0 3.18055e-015 3.7921 -1.552 1.4806 5.96354e-016 0 3.18055e-015 1.4655 -1.808 0.9609 8.94531e-016 -1.98785e-016 6.36111e-015 4.9141 -1.269 0.3591 6.4605e-016 0 3.18055e-015 3.1477 -1.685 0.8462 5.96354e-016 0 3.18055e-015 0.8055 -1.585 0.7955 8.94531e-016 -1.98785e-016 6.36111e-015 -1.7069 20.075 5.0056 0 0 -0 -13.6458 -0.047 -4.849 -1.4496 0.0636048 -5.0245 -28.3255 -0.9759 2.2888 -1.74811 1.20616 -16.8394 -22.1583 -0.53 10.8316 -1.19271e-015 1.98785e-016 -3.18055e-015 -0.786 0.112 2.5817 -3.97569e-016 1.98785e-016 -3.18055e-015 -0.3601 -0.878 4.2331 -2.98177e-016 1.98785e-016 -3.18055e-015 -1.8127 -1.216 2.2227 -2.98177e-016 3.97569e-016 -0 -0.9571 1.114 1.7695 4.96962e-016 0 -6.36111e-015 -4.1246 0.487 4.1451 -9.93923e-017 3.97569e-016 -0 -3.4052 -1.454 2.7682 -8.94531e-016 5.96354e-016 -0 -1.4531 -1.795 1.2713 -3.97569e-016 3.97569e-016 -0 -5.6954 0.21 2.1184 -9.93923e-017 3.97569e-016 -0 -3.9766 -1.54 2.3863 -8.94531e-016 5.96354e-016 -0 -1.4042 -1.926 1.125 -3.97569e-016 3.97569e-016 -0 -2.0956 0.66 -0.3894 4.96962e-016 0 -6.36111e-015 -5.0395 -0.09 2.4971 -9.93923e-017 3.97569e-016 -0 -3.7921 -1.552 1.4806 -8.94531e-016 5.96354e-016 -0 -1.4655 -1.808 0.9609 -3.97569e-016 3.97569e-016 -0 -4.9141 -1.269 0.3592 -9.93923e-017 3.97569e-016 -0 -3.1477 -1.685 0.8462 -8.94531e-016 5.96354e-016 -0 -0.8055 -1.585 0.7955 -3.97569e-016 3.97569e-016 -0 8.367 -8.2066 0.5982 -4.66115 -1.03232 0.120763 2.1923 -43.463 -0.4932 0.00990601 1.55097 0.177175 0.7333 -45.8593 -2.6451 4.65196 -0.54114 -0.255042 -8.367 -8.2066 0.5982 4.66115 -1.03222 -0.120763 -2.1923 -43.463 -0.4931 -0.00990459 1.5509 -0.177176 -0.7333 -45.8593 -2.6451 -4.65196 -0.541171 0.255041 
-25.6835 25.1172 2.29585 0 0 -0 0 -1.186 -1.5018 -0.0286544 7.94796 -0.00636454 -3.55271e-015 9.964 0.2134 -0.0572469 15.8959 -0.00879888 0 13.134 -3.2573 -0.057247 15.8959 -0.00879887 0 20.686 -1.6905 0.267527 0.267514 -0.00062425 0 7.238 -0.1237 4.57668e-008 0.375932 -4.43712e-008 1.7069 20.075 5.0056 -29.8416 9.27771 -31.9877 13.6458 -0.047 -4.849 -16.5557 5.76335 -23.521 28.3255 -0.9759 2.2888 -5.99271 2.38404 4.70609 22.1583 -0.53 10.8316 18.2482 -6.9938 1.16483 0.786 0.112 2.5817 4.77083e-015 -3.18055e-015 -3.18055e-015 0.3601 -0.878 4.2331 6.36111e-015 -6.36111e-015 -0 1.8127 -1.216 2.2227 3.18055e-015 -6.36111e-015 3.18055e-015 0.9571 1.114 1.7695 3.18055e-015 -3.18055e-015 -4.77083e-015 4.1246 0.487 4.1451 3.18055e-015 -1.27222e-014 1.59028e-015 3.4052 -1.454 2.7682 6.36111e-015 -6.36111e-015 1.59028e-015 1.4531 -1.795 1.2713 1.59028e-015 -3.18055e-015 -0 5.6954 0.21 2.1184 3.18055e-015 -1.27222e-014 1.59028e-015 3.9766 -1.54 2.3863 6.36111e-015 -6.36111e-015 1.59028e-015 1.4042 -1.926 1.125 1.59028e-015 -3.18055e-015 -0 2.0956 0.66 -0.3894 3.18055e-015 -3.18055e-015 -4.77083e-015 5.0395 -0.09 2.4971 3.18055e-015 -1.27222e-014 1.59028e-015 3.7921 -1.552 1.4806 6.36111e-015 -6.36111e-015 1.59028e-015 1.4655 -1.808 0.9609 1.59028e-015 -3.18055e-015 -0 4.9141 -1.269 0.3591 3.18055e-015 -1.27222e-014 1.59028e-015 3.1477 -1.685 0.8462 6.36111e-015 -6.36111e-015 1.59028e-015 0.8055 -1.585 0.7955 1.59028e-015 -3.18055e-015 -0 -1.7069 20.075 5.0056 29.3635 8.85988 32.8582 -13.6458 -0.047 -4.849 16.455 5.8551 24.2424 -28.3255 -0.9759 2.2888 6.54803 2.47317 -9.47225 -22.1583 -0.53 10.8316 -21.0606 -8.10468 -1.77985 -0.786 0.112 2.5817 -4.75951e-007 -1.42118e-006 7.02362e-007 -0.3601 -0.878 4.2331 0 0 -0 -1.8127 -1.216 2.2227 -3.6488e-006 -2.73973e-007 9.38553e-007 -0.9571 1.114 1.7695 4.77083e-015 3.18055e-015 1.59028e-015 -4.1246 0.487 4.1451 -4.75951e-007 -1.42118e-006 7.02362e-007 -3.4052 -1.454 2.7682 0 0 -0 -1.4531 -1.795 1.2713 -3.6488e-006 -2.73973e-007 9.38553e-007 -5.6954 0.21 2.1184 -4.75951e-007 -1.42118e-006 7.02362e-007 -3.9766 -1.54 2.3863 0 0 -0 -1.4042 -1.926 1.125 -3.6488e-006 -2.73973e-007 9.38553e-007 -2.0956 0.66 -0.3894 4.77083e-015 3.18055e-015 1.59028e-015 -5.0395 -0.09 2.4971 -4.75951e-007 -1.42118e-006 7.02362e-007 -3.7921 -1.552 1.4806 0 0 -0 -1.4655 -1.808 0.9609 -3.6488e-006 -2.73973e-007 9.38553e-007 -4.9141 -1.269 0.3592 -4.75951e-007 -1.42118e-006 7.02362e-007 -3.1477 -1.685 0.8462 0 0 -0 -0.8055 -1.585 0.7955 -3.6488e-006 -2.73973e-007 9.38553e-007 8.367 -8.2066 0.5982 3.48381 -59.2957 19.0644 2.1923 -43.463 -0.4932 172.29 35.1323 -165.132 0.7333 -45.8593 -2.6451 3.71828 66.4375 11.5368 -8.367 -8.2066 0.5982 -3.49465 -59.2953 -19.0749 -2.1923 -43.463 -0.4931 -172.292 35.1335 165.128 -0.7333 -45.8593 -2.6451 -3.72445 66.4376 -11.5369 
-25.6835 25.1172 2.29585 0 0 -0 0 -1.186 -1.5018 -0.0286544 7.94796 -0.00636454 0 9.964 0.2134 -0.0572469 15.8959 -0.00879888 7.10543e-015 13.134 -3.2573 -0.057247 15.8959 -0.00879886 0 20.686 -1.6905 0.536665 0.536587 -0.0267539 0 7.238 -0.1237 6.6248e-008 0.753479 -5.26722e-008 1.7069 20.075 5.0056 -29.8416 9.2777 -31.9877 13.6458 -0.047 -4.849 -16.5557 5.76335 -23.521 28.3255 -0.9759 2.2888 -5.99271 2.38404 4.70609 22.1583 -0.53 10.8316 18.2482 -6.9938 1.16483 0.786 0.112 2.5817 -3.77043e-006 1.77529e-006 7.1457e-007 0.3601 -0.878 4.2331 3.68267e-006 -3.45547e-006 -6.51416e-007 1.8127 -1.216 2.2227 -6.54708e-007 6.6451e-007 -7.11754e-006 0.9571 1.114 1.7695 1.59028e-015 1.27222e-014 -1.59028e-015 4.1246 0.487 4.1451 -3.77043e-006 1.77529e-006 7.1457e-007 3.4052 -1.454 2.7682 3.68267e-006 -3.45547e-006 -6.51416e-007 1.4531 -1.795 1.2713 -6.54708e-007 6.6451e-007 -7.11754e-006 5.6954 0.21 2.1184 -3.77043e-006 1.77529e-006 7.1457e-007 3.9766 -1.54 2.3863 3.68267e-006 -3.45547e-006 -6.51416e-007 1.4042 -1.926 1.125 -6.54708e-007 6.6451e-007 -7.11754e-006 2.0956 0.66 -0.3894 1.59028e-015 1.27222e-014 -1.59028e-015 5.0395 -0.09 2.4971 -3.77043e-006 1.77529e-006 7.1457e-007 3.7921 -1.552 1.4806 3.68267e-006 -3.45547e-006 -6.51416e-007 1.4655 -1.808 0.9609 -6.54708e-007 6.6451e-007 -7.11754e-006 4.9141 -1.269 0.3591 -3.77043e-006 1.77529e-006 7.1457e-007 3.1477 -1.685 0.8462 3.68267e-006 -3.45547e-006 -6.51416e-007 0.8055 -1.585 0.7955 -6.54708e-007 6.6451e-007 -7.11754e-006 -1.7069 20.075 5.0056 29.3635 8.85988 32.8583 -13.6458 -0.047 -4.849 16.455 5.8551 24.2424 -28.3255 -0.9759 2.2888 6.54803 2.47317 -9.47226 -22.1583 -0.53 10.8316 -21.0606 -8.10467 -1.77984 -0.786 0.112 2.5817 -4.63361e-006 -4.85731e-007 3.40773e-006 -0.3601 -0.878 4.2331 -5.10956e-006 -1.90691e-006 4.11009e-006 -1.8127 -1.216 2.2227 -2.84236e-006 9.51903e-007 -8.39349e-007 -0.9571 1.114 1.7695 9.54166e-015 6.36111e-015 3.18055e-015 -4.1246 0.487 4.1451 -4.63361e-006 -4.85731e-007 3.40773e-006 -3.4052 -1.454 2.7682 -5.10956e-006 -1.90691e-006 4.11009e-006 -1.4531 -1.795 1.2713 -2.84236e-006 9.51903e-007 -8.39349e-007 -5.6954 0.21 2.1184 -4.63361e-006 -4.85731e-007 3.40773e-006 -3.9766 -1.54 2.3863 -5.10956e-006 -1.90691e-006 4.11009e-006 -1.4042 -1.926 1.125 -2.84236e-006 9.51903e-007 -8.39349e-007 -2.0956 0.66 -0.3894 9.54166e-015 6.36111e-015 3.18055e-015 -5.0395 -0.09 2.4971 -4.63361e-006 -4.85731e-007 3.40773e-006 -3.7921 -1.552 1.4806 -5.10956e-006 -1.90691e-006 4.11009e-006 -1.4655 -1.808 0.9609 -2.84236e-006 9.51903e-007 -8.39349e-007 -4.9141 -1.269 0.3592 -4.63361e-006 -4.85731e-007 3.40773e-006 -3.1477 -1.685 0.8462 -5.10956e-006 -1.90691e-006 4.11009e-006 -0.8055 -1.585 0.7955 -2.84236e-006 9.51903e-007 -8.39349e-007 8.367 -8.2066 0.5982 3.48386 -59.2958 19.0645 2.1923 -43.463 -0.4932 172.29 35.1323 -165.132 0.7333 -45.8593 -2.6451 3.71833 66.4376 11.5367 -8.367 -8.2066 0.5982 -3.49466 -59.2953 -19.0749 -2.1923 -43.463 -0.4931 -172.292 35.1335 165.128 -0.7333 -45.8593 -2.6451 -3.72447 66.4377 -11.5369 
-25.6835 25.1172 2.29585 0 0 -0 0 -1.186 -1.5018 -0.0286544 7.94796 -0.00636454 -3.55271e-015 9.964 0.2134 -0.0572469 15.8959 -0.00879888 0 13.134 -3.2573 -0.057247 15.8959 -0.00879887 -3.55271e-015 20.686 -1.6905 0.806015 0.805255 -0.0541598 0 7.238 -0.1237 9.20836e-008 1.13115 -6.38488e-009 1.7069 20.075 5.0056 -29.8416 9.27771 -31.9877 13.6458 -0.047 -4.849 -16.5557 5.76337 -23.521 28.3255 -0.9759 2.2888 -5.99269 2.38404 4.7061 22.1583 -0.53 10.8316 18.2482 -6.9938 1.16483 0.786 0.112 2.5817 2.11816e-006 1.66208e-006 -6.30786e-006 0.3601 -0.878 4.2331 -2.11816e-006 -1.66208e-006 6.30786e-006 1.8127 -1.216 2.2227 2.11816e-006 1.66208e-006 -6.30786e-006 0.9571 1.114 1.7695 -2.64834e-031 9.54166e-015 1.59028e-015 4.1246 0.487 4.1451 2.11816e-006 1.66208e-006 -6.30786e-006 3.4052 -1.454 2.7682 -2.11816e-006 -1.66208e-006 6.30786e-006 1.4531 -1.795 1.2713 2.11816e-006 1.66208e-006 -6.30786e-006 5.6954 0.21 2.1184 2.11816e-006 1.66208e-006 -6.30786e-006 3.9766 -1.54 2.3863 -2.11816e-006 -1.66208e-006 6.30786e-006 1.4042 -1.926 1.125 2.11816e-006 1.66208e-006 -6.30786e-006 2.0956 0.66 -0.3894 -2.64834e-031 9.54166e-015 1.59028e-015 5.0395 -0.09 2.4971 2.11816e-006 1.66208e-006 -6.30786e-006 3.7921 -1.552 1.4806 -2.11816e-006 -1.66208e-006 6.30786e-006 1.4655 -1.808 0.9609 2.11816e-006 1.66208e-006 -6.30786e-006 4.9141 -1.269 0.3591 2.11816e-006 1.66208e-006 -6.30786e-006 3.1477 -1.685 0.8462 -2.11816e-006 -1.66208e-006 6.30786e-006 0.8055 -1.585 0.7955 2.11816e-006 1.66208e-006 -6.30786e-006 -1.7069 20.075 5.0056 29.3635 8.85988 32.8582 -13.6458 -0.047 -4.849 16.455 5.85511 24.2424 -28.3255 -0.9759 2.2888 6.54802 2.47317 -9.47227 -22.1583 -0.53 10.8316 -21.0606 -8.10468 -1.77984 -0.786 0.112 2.5817 -3.29099e-008 2.6306e-006 1.06446e-006 -0.3601 -0.878 4.2331 -9.51902e-007 -2.84236e-006 1.40472e-006 -1.8127 -1.216 2.2227 2.87527e-006 -3.5825e-006 -2.25108e-007 -0.9571 1.114 1.7695 3.18055e-015 -6.36111e-015 3.18055e-015 -4.1246 0.487 4.1451 -3.29098e-008 2.6306e-006 1.06446e-006 -3.4052 -1.454 2.7682 -9.51902e-007 -2.84236e-006 1.40472e-006 -1.4531 -1.795 1.2713 2.87527e-006 -3.5825e-006 -2.25108e-007 -5.6954 0.21 2.1184 -3.29098e-008 2.6306e-006 1.06446e-006 -3.9766 -1.54 2.3863 -9.51902e-007 -2.84236e-006 1.40472e-006 -1.4042 -1.926 1.125 2.87527e-006 -3.5825e-006 -2.25108e-007 -2.0956 0.66 -0.3894 3.18055e-015 -6.36111e-015 3.18055e-015 -5.0395 -0.09 2.4971 -3.29098e-008 2.6306e-006 1.06446e-006 -3.7921 -1.552 1.4806 -9.51902e-007 -2.84236e-006 1.40472e-006 -1.4655 -1.808 0.9609 2.87527e-006 -3.5825e-006 -2.25108e-007 -4.9141 -1.269 0.3592 -3.29098e-008 2.6306e-006 1.06446e-006 -3.1477 -1.685 0.8462 -9.51902e-007 -2.84236e-006 1.40472e-006 -0.8055 -1.585 0.7955 2.87527e-006 -3.5825e-006 -2.25108e-007 8.367 -8.2066 0.5982 3.48382 -59.2957 19.0644 2.1923 -43.463 -0.4932 172.29 35.1323 -165.132 0.7333 -45.8593 -2.6451 3.71832 66.4375 11.5367 -8.367 -8.2066 0.5982 -3.49463 -59.2953 -19.0749 -2.1923 -43.463 -0.4931 -172.292 35.1335 165.128 -0.7333 -45.8593 -2.6451 -3.72445 66.4376 -11.5369 
